<svg style="enable-background:new 0 0 512 512;" version="1.1" viewBox="0 0 512 512" xml:space="preserve" xmlns="http://www.w3.org/2000/svg" xmlns:xlink="http://www.w3.org/1999/xlink"><style type="text/css">
	.st0{fill:#16ADE1;}
	.st1{fill:#1B3954;}
</style><g id="Layer_1"/><g id="Layer_2"><g><g><g><path class="st1" d="M159.23,408.61H38.02c-1.94,0-3.79-0.8-5.12-2.22c-1.32-1.42-2-3.32-1.87-5.26l5.64-82.36      c0.19-2.73,1.95-5.11,4.51-6.07c2.56-0.97,5.45-0.35,7.4,1.58c13.39,13.29,31.16,20.6,50.04,20.6      c18.87,0,36.64-7.31,50.04-20.59c2.75-2.72,7.18-2.7,9.9,0.04c2.72,2.75,2.7,7.18-0.04,9.9c-16.04,15.9-37.31,24.65-59.89,24.65      c-17.76,0-34.7-5.41-48.92-15.45l-4.19,61.18h106.18l-3.12-42.22c-0.29-3.86,2.61-7.21,6.46-7.5c3.83-0.28,7.21,2.61,7.5,6.46      l3.68,49.73c0.14,1.94-0.53,3.85-1.85,5.28C163.03,407.8,161.18,408.61,159.23,408.61z"/></g><g><path class="st1" d="M98.62,307.52c-24.11,0-43.73-19.62-43.73-43.73c0-16.73,9.31-31.74,24.31-39.18      c6.06-3.01,12.59-4.54,19.42-4.54c24.11,0,43.73,19.62,43.73,43.73c0,6.82-1.52,13.36-4.53,19.42      C130.36,298.21,115.34,307.52,98.62,307.52z M98.62,234.07c-4.64,0-9.08,1.04-13.19,3.08c-10.21,5.06-16.54,15.27-16.54,26.64      c0,16.39,13.33,29.73,29.73,29.73c11.37,0,21.58-6.33,26.66-16.53c2.04-4.11,3.07-8.55,3.07-13.2      C128.35,247.4,115.01,234.07,98.62,234.07z"/></g><g><path class="st1" d="M98.62,348.88c-22.59,0-43.87-8.76-59.9-24.66c-16.25-16.09-25.19-37.55-25.19-60.43      c0-46.92,38.17-85.1,85.09-85.1c9.6,0,19.04,1.59,28.05,4.74c24.27,8.46,43.82,28.02,52.31,52.31c0,0,0,0,0,0      c3.14,9.01,4.74,18.45,4.74,28.05c0,22.88-8.95,44.35-25.21,60.44C142.48,340.13,121.21,348.88,98.62,348.88z M98.62,192.69      c-39.2,0-71.09,31.9-71.09,71.1c0,19.11,7.48,37.04,21.05,50.48c13.39,13.29,31.16,20.61,50.04,20.61      c18.87,0,36.64-7.31,50.04-20.59c13.58-13.45,21.06-31.38,21.06-50.5c0-8.03-1.33-15.92-3.96-23.44      c-7.09-20.29-23.42-36.63-43.7-43.7C114.54,194.02,106.65,192.69,98.62,192.69z"/></g><g><path class="st0" d="M98.62,307.52c-24.11,0-43.73-19.62-43.73-43.73c0-16.73,9.31-31.74,24.31-39.18      c6.06-3.01,12.59-4.54,19.42-4.54c24.11,0,43.73,19.62,43.73,43.73c0,6.82-1.52,13.36-4.53,19.42      C130.36,298.21,115.34,307.52,98.62,307.52z M98.62,234.07c-4.64,0-9.08,1.04-13.19,3.08c-10.21,5.06-16.54,15.27-16.54,26.64      c0,16.39,13.33,29.73,29.73,29.73c11.37,0,21.58-6.33,26.66-16.53c2.04-4.11,3.07-8.55,3.07-13.2      C128.35,247.4,115.01,234.07,98.62,234.07z"/></g><g><path class="st1" d="M172.38,245.04c-0.46,0-0.93-0.05-1.4-0.14c-2.42-0.49-4.4-2.22-5.21-4.55      c-7.09-20.29-23.42-36.63-43.7-43.7c-2.33-0.81-4.06-2.79-4.55-5.21c-0.49-2.42,0.32-4.92,2.15-6.58l75.05-68.26      c2.86-2.6,7.29-2.39,9.89,0.47c2.6,2.86,2.39,7.29-0.47,9.89l-67,60.94c16,8.17,29.21,21.38,37.39,37.39l76.45-84.05      c-17.02-7.02-29.71-22.02-33.58-40.61c-0.79-3.79,1.64-7.49,5.43-8.28c3.78-0.79,7.49,1.64,8.28,5.43      c3.47,16.69,17.06,29.97,33.81,33.05c2.5,0.46,4.55,2.24,5.37,4.65s0.26,5.07-1.45,6.95l-91.26,100.33      C176.21,244.23,174.33,245.04,172.38,245.04z"/></g><g><path class="st1" d="M257.35,112.93c-1.63,0-3.27-0.57-4.59-1.72l-0.95-0.82c-1.46-1.27-2.33-3.09-2.4-5.02      c-0.07-1.93,0.66-3.81,2.02-5.18c1.31-1.32,3.11-2.09,4.98-2.1c0.01,0,0.01,0,0.02,0c1.85,0,3.65,0.71,4.97,2.02      c0.16,0.16,0.32,0.31,0.48,0.46l0.33,0.32c2.74,2.63,2.87,6.97,0.31,9.77C261.13,112.17,259.25,112.93,257.35,112.93z"/></g><g><path class="st1" d="M272.66,145.53c-3.48,0-6.95-0.32-10.3-0.94c-22.62-4.16-40.28-21.42-44.97-43.96      c-0.78-3.78-1.18-7.66-1.18-11.55c0-31.12,25.32-56.44,56.45-56.44c3.87,0,7,3.13,7,7s-3.13,7-7,7      c-23.41,0-42.45,19.04-42.45,42.44c0,2.93,0.3,5.86,0.89,8.7c3.47,16.68,17.06,29.96,33.81,33.04c2.52,0.47,5.13,0.71,7.75,0.71      c5.35,0,10.55-0.98,15.47-2.91c10.32-4.04,18.82-12.16,23.32-22.3c2.43-5.45,3.66-11.25,3.66-17.25      c0-9.75-3.39-19.27-9.54-26.81c-2.44-2.99-2-7.4,1-9.85c2.99-2.44,7.4-2,9.85,1c8.19,10.03,12.7,22.7,12.7,35.66      c0,7.98-1.64,15.69-4.87,22.94c-5.98,13.47-17.28,24.27-31,29.64C286.69,144.23,279.76,145.53,272.66,145.53z"/></g><g><path class="st1" d="M294.61,51.77c-3.87,0-7-3.13-7-7s3.13-7,7-7h0.01c3.87,0,7,3.13,7,7S298.48,51.77,294.61,51.77z"/></g><g><path class="st1" d="M272.66,118.84c-7.38,0-14.47-2.72-19.95-7.67l-0.9-0.78c-0.41-0.35-0.77-0.75-1.08-1.18      c-5.06-5.51-7.83-12.62-7.83-20.12c0-7.94,3.09-15.41,8.71-21.03c0.09-0.09,0.18-0.18,0.28-0.26c5.6-5.45,12.96-8.45,20.77-8.45      c13.17,0,24.61,8.46,28.46,21.05c0.86,2.8,1.3,5.73,1.3,8.7c0,7.94-3.09,15.41-8.71,21.04      C288.06,115.75,280.59,118.84,272.66,118.84z M261.71,100.45l0.24,0.21c0.04,0.03,0.07,0.06,0.1,0.09      c2.91,2.64,6.68,4.09,10.6,4.09c4.2,0,8.16-1.64,11.15-4.62c2.96-2.97,4.6-6.93,4.6-11.14c0-1.58-0.23-3.12-0.68-4.6      c-2.04-6.67-8.1-11.15-15.07-11.15c-4.2,0-8.15,1.64-11.14,4.62c-0.06,0.06-0.13,0.12-0.19,0.18      c-2.86,2.95-4.42,6.83-4.42,10.94c0,4.16,1.61,8.1,4.54,11.07C261.53,100.25,261.62,100.35,261.71,100.45z"/></g><g><path class="st0" d="M272.66,118.84c-7.41,0-14.51-2.74-20.01-7.72c-0.05-0.05-0.1-0.09-0.15-0.14l-0.27-0.26      c-0.24-0.23-0.48-0.46-0.72-0.7c-5.57-5.66-8.61-13.08-8.61-20.94c0-7.94,3.09-15.41,8.71-21.03c0.09-0.09,0.18-0.18,0.28-0.26      c5.6-5.45,12.96-8.45,20.77-8.45c13.17,0,24.61,8.46,28.46,21.05c0.86,2.8,1.3,5.73,1.3,8.7c0,7.94-3.09,15.41-8.71,21.04      C288.06,115.75,280.59,118.84,272.66,118.84z M262.11,100.8c2.9,2.6,6.64,4.04,10.54,4.04c4.2,0,8.16-1.64,11.15-4.62      c2.96-2.97,4.6-6.93,4.6-11.14c0-1.58-0.23-3.12-0.68-4.6c-2.04-6.67-8.1-11.15-15.07-11.15c-4.2,0-8.15,1.64-11.14,4.62      c-0.06,0.06-0.13,0.12-0.19,0.18c-2.86,2.95-4.42,6.83-4.42,10.94c0,4.16,1.61,8.1,4.54,11.07c0.12,0.11,0.27,0.26,0.43,0.42      L262.11,100.8z"/></g><g><path class="st1" d="M363.52,205.96c-1.68,0-3.32-0.6-4.61-1.73l-72.84-63.82c-1.84-1.61-2.7-4.06-2.28-6.47      c0.42-2.41,2.07-4.42,4.35-5.31c10.32-4.04,18.81-12.16,23.31-22.29c0.97-2.18,2.98-3.72,5.35-4.08      c2.36-0.36,4.74,0.51,6.32,2.31l63.04,71.95c1.51,1.73,2.08,4.09,1.52,6.32s-2.18,4.04-4.33,4.85      c-6.21,2.33-11.03,7.28-13.21,13.58c-0.76,2.2-2.57,3.88-4.82,4.48C364.72,205.88,364.12,205.96,363.52,205.96z M303.03,136.65      l58.38,51.15c2.31-3.34,5.17-6.25,8.46-8.64l-50.8-57.97C314.8,127.33,309.33,132.61,303.03,136.65z"/></g><g><g><path class="st1" d="M342.99,301.08h-28.92c-3.87,0-7-3.13-7-7v-59.74c0-2.57,1.41-4.94,3.67-6.16l47.85-25.86       c2.17-1.17,4.8-1.12,6.91,0.15c2.12,1.26,3.42,3.55,3.42,6.01c0,7.96,4.05,15.11,10.84,19.18c2.16,1.29,3.45,3.65,3.4,6.16       c-0.06,2.51-1.46,4.81-3.67,6l-29.5,15.94v38.31C349.99,297.94,346.86,301.08,342.99,301.08z M321.07,287.08h14.92v-35.49       c0-2.57,1.41-4.94,3.67-6.16l24.2-13.08c-3.29-3.79-5.77-8.24-7.28-13.03l-35.51,19.19V287.08z"/></g><g><path class="st1" d="M468.37,301.08h-28.92c-3.87,0-7-3.13-7-7v-38.31l-29.48-15.93c-2.21-1.19-3.61-3.48-3.67-6       c-0.06-2.51,1.24-4.86,3.39-6.16c6.78-4.08,10.83-11.24,10.83-19.14c0-2.47,1.3-4.78,3.42-6.04c2.12-1.26,4.74-1.35,6.91-0.17       l47.85,25.86c2.26,1.22,3.67,3.59,3.67,6.16v59.74C475.37,297.94,472.24,301.08,468.37,301.08z M446.46,287.08h14.92v-48.56       l-35.51-19.19c-1.5,4.8-3.99,9.24-7.27,13.04l24.19,13.07c2.26,1.22,3.67,3.59,3.67,6.16V287.08z"/></g><g><path class="st0" d="M391.23,244.83c-6.59,0-13.05-1.79-18.68-5.17c-10.87-6.52-17.63-18.45-17.63-31.12       c0.01-4.08,0.68-8.04,1.98-11.84c3.56-10.27,11.4-18.33,21.53-22.13c4.06-1.55,8.38-2.34,12.8-2.34       c19.97,0,36.25,16.26,36.3,36.24c0,0,0,0.01,0,0.01v0.06c0,12.67-6.75,24.6-17.62,31.13       C404.26,243.05,397.81,244.83,391.23,244.83z M391.23,186.23c-2.71,0-5.36,0.48-7.85,1.43c-6.24,2.34-11.06,7.29-13.24,13.59       c-0.79,2.33-1.21,4.78-1.22,7.25c0,7.94,4.05,15.08,10.84,19.15c3.46,2.08,7.42,3.17,11.47,3.17c4.05,0,8.01-1.09,11.48-3.17       c6.77-4.07,10.82-11.23,10.82-19.13l7-0.06l-7,0.01C413.5,196.22,403.5,186.23,391.23,186.23z"/></g></g><g><path class="st0" d="M439.46,368.38h-96.46c-3.87,0-7-3.13-7-7v-86.97c0-3.87,3.13-7,7-7h96.46c3.87,0,7,3.13,7,7v86.97      C446.46,365.25,443.32,368.38,439.46,368.38z M349.99,354.38h82.46v-72.97h-82.46V354.38z"/></g><g><path class="st1" d="M290.98,412.35c-0.46,0-0.92-0.05-1.37-0.14c-0.44-0.09-0.88-0.23-1.31-0.4c-0.42-0.18-0.82-0.39-1.2-0.64      c-0.39-0.26-0.74-0.55-1.07-0.87c-1.3-1.31-2.05-3.11-2.05-4.95c0-0.46,0.05-0.92,0.14-1.37c0.09-0.45,0.22-0.89,0.4-1.31      c0.17-0.42,0.39-0.83,0.64-1.21c0.26-0.38,0.55-0.74,0.87-1.06c0.33-0.33,0.68-0.62,1.07-0.87c0.38-0.26,0.78-0.47,1.2-0.65      c0.43-0.17,0.87-0.31,1.31-0.4c2.28-0.45,4.7,0.29,6.32,1.92c0.33,0.32,0.62,0.68,0.87,1.06c0.26,0.38,0.47,0.79,0.65,1.21      c0.17,0.42,0.31,0.86,0.4,1.31c0.09,0.45,0.13,0.91,0.13,1.37c0,1.84-0.74,3.64-2.05,4.95      C294.63,411.6,292.82,412.35,290.98,412.35z"/></g><g><path class="st1" d="M491.47,479.36H290.98c-3.87,0-7-3.13-7-7v-46.18c0-3.87,3.13-7,7-7s7,3.13,7,7v39.18h186.48v-96.97H297.98      v16.13c0,3.87-3.13,7-7,7s-7-3.13-7-7v-23.13c0-3.87,3.13-7,7-7h200.48c3.87,0,7,3.13,7,7v110.97      C498.47,476.22,495.33,479.36,491.47,479.36z"/></g><g><path class="st1" d="M176.72,479.36H20.53c-3.87,0-7-3.13-7-7v-70.75c0-3.87,3.13-7,7-7h156.19c3.87,0,7,3.13,7,7v70.75      C183.72,476.22,180.59,479.36,176.72,479.36z M27.53,465.36h142.19v-56.75H27.53V465.36z"/></g></g></g></g></svg>