<svg id="Layer_1" style="enable-background:new 0 0 66 66;" version="1.1" viewBox="0 0 66 66" xml:space="preserve" xmlns="http://www.w3.org/2000/svg" xmlns:xlink="http://www.w3.org/1999/xlink"><path d="M63.82,29.5c0-1.51-1.05-2.77-2.46-3.11V8.49c1.41-0.34,2.46-1.6,2.46-3.11c0-1.77-1.44-3.21-3.21-3.21H41.52  c-1.77,0-3.21,1.44-3.21,3.21c0,1.61,1.2,2.94,2.75,3.17v17.79c-1.55,0.23-2.75,1.55-2.75,3.17c0,1.14,0.61,2.14,1.51,2.71  c-0.9,0.57-1.51,1.57-1.51,2.71c0,1.61,1.2,2.94,2.75,3.17v1.54c0,0.96-0.79,1.75-1.75,1.75h-2.8c-0.09-1.7-1.48-3.05-3.2-3.05  c-1.14,0-2.14,0.61-2.71,1.51c-0.57-0.9-1.57-1.51-2.71-1.51c-1.72,0-3.11,1.36-3.2,3.05H8.59c-0.09-1.7-1.48-3.05-3.2-3.05  c-1.77,0-3.21,1.44-3.21,3.21v19.09c0,1.77,1.44,3.21,3.21,3.21c1.4,0,2.58-0.91,3.02-2.16h16.43c0.44,1.25,1.62,2.16,3.02,2.16  c1.14,0,2.14-0.61,2.71-1.51c0.57,0.9,1.57,1.51,2.71,1.51c1.4,0,2.59-0.91,3.02-2.16h10.71c7.9,0,14.33-6.43,14.33-14.33v-9.31  c1.41-0.34,2.46-1.6,2.46-3.11c0-1.14-0.61-2.14-1.51-2.71C63.21,31.64,63.82,30.64,63.82,29.5z M7.61,60.63  c0,1.22-0.99,2.21-2.21,2.21c-1.22,0-2.21-0.99-2.21-2.21V41.54c0-1.22,0.99-2.21,2.21-2.21c1.22,0,2.21,0.99,2.21,2.21V60.63z   M8.6,60.68c0-0.02,0.01-0.03,0.01-0.05V42.38h16.05v18.25c0,0.02,0,0.03,0.01,0.05H8.6z M30.09,60.63c0,1.22-0.99,2.21-2.21,2.21  c-1.22,0-2.21-0.99-2.21-2.21V41.54c0-1.22,0.99-2.21,2.21-2.21c1.22,0,2.21,0.99,2.21,2.21V60.63z M35.51,60.63  c0,1.22-0.99,2.21-2.21,2.21c-1.22,0-2.21-0.99-2.21-2.21V41.54c0-1.22,0.99-2.21,2.21-2.21c1.22,0,2.21,0.99,2.21,2.21V60.63z   M39.3,5.37c0-1.22,0.99-2.21,2.21-2.21H60.6c1.22,0,2.21,0.99,2.21,2.21s-0.99,2.21-2.21,2.21H41.52C40.3,7.59,39.3,6.59,39.3,5.37  z M60.36,8.59v17.7H42.05V8.59H60.36z M60.36,47.35c0,7.35-5.98,13.33-13.33,13.33H36.51c0-0.02,0.01-0.03,0.01-0.05V42.38h2.79  c1.52,0,2.75-1.23,2.75-2.75v-1.49h18.31V47.35z M62.82,34.92c0,1.13-0.86,2.06-1.96,2.19h0c0,0,0,0,0,0  c-0.08,0.01-0.17,0.03-0.26,0.03H41.52c-1.22,0-2.21-0.99-2.21-2.21s0.99-2.21,2.21-2.21H60.6C61.82,32.71,62.82,33.7,62.82,34.92z   M60.6,31.71H41.52c-1.22,0-2.21-0.99-2.21-2.21s0.99-2.21,2.21-2.21H60.6c0.09,0,0.17,0.02,0.26,0.03c0,0,0,0,0,0h0  c1.1,0.13,1.96,1.05,1.96,2.19C62.82,30.72,61.82,31.71,60.6,31.71z"/></svg>