<svg id="Layer_1" class="st0" style="enable-background:new 0 0 64 64;" version="1.1" viewBox="0 0 64 64" xml:space="preserve" xmlns="http://www.w3.org/2000/svg" xmlns:xlink="http://www.w3.org/1999/xlink">
    <style type="text/css">
        .st0{fill:#16ADE1;}
        .st1{fill:#1B3954;}
    </style>
    <path d="M59.61281,25.14001c-0.15002-0.41998-0.52002-0.70996-0.95996-0.76996l-15.67004-2.96002l-0.19006-0.02002  c-0.43994,0-0.83997,0.23999-1.04993,0.62c-0.21008,0.37-0.19006,0.82001,0.07996,1.25l2.20996,2.91003  c-3.02002,0.92999-5.78992,2.47998-8.15991,4.52997v-12.63l4.67993,1.03003c0.43005,0.09998,0.88013-0.04999,1.16003-0.39001  c0.29004-0.33997,0.37-0.81,0.16003-1.29999l-8.77002-16.69C32.91286,0.28003,32.48281,0,32.00283,0  c-0.4801,0-0.91003,0.28003-1.06995,0.65002l-8.80005,16.78003c-0.20996,0.39996-0.16003,0.89996,0.12,1.25  c0.28992,0.35999,0.75989,0.52997,1.18005,0.41998l4.69995-1.03003v12.64001c-2.37012-2.06-5.14001-3.59998-8.17004-4.53998  L22.2228,23.19c0.22998-0.35999,0.23999-0.81,0.03992-1.17999c-0.20996-0.38-0.60986-0.62-1.04993-0.62l-15.87,2.98004  c-0.43994,0.06-0.81006,0.35999-0.95996,0.77997c-0.14001,0.41998-0.04004,0.88,0.27002,1.20001L15.12282,38.38l0.08997,0.09003  c0.33997,0.31,0.80994,0.39001,1.2301,0.21997c0.40991-0.15997,0.68994-0.52997,0.72998-1.02997l0.08984-4.25  c5.41016,1.42999,8.09009,4.90997,9.39014,7.66998c0.97998,2.06,1.47998,4.37,1.47998,6.87v8.66003h-4.56006V64h16.86011v-7.38995  h-4.56006V47.94c0-2.45996,0.51001-4.82996,1.46997-6.85999c1.31006-2.76001,3.97998-6.23999,9.40002-7.66998l0.07996,4.32001  c0.04004,0.42999,0.32007,0.79999,0.72998,0.96997c0.42004,0.16003,0.90002,0.07001,1.23999-0.22998l10.55005-12.12  C59.65285,26.03003,59.76271,25.56006,59.61281,25.14001z M33.87282,15.58002v41.03003h-3.73999V15.58002l-5.40002,1.19  l7.27002-13.84998l7.27991,13.84998L33.87282,15.58002z" />
</svg>